{"title":"A Clockwork Orange [Eng,Ger,Spa][emandoz 1-gig rip]","uid":5036785,"size":1075955665,"categoryP":"video","categoryS":"movies","magnet":"?xt=urn:btih:7e28b8d5de8e52f4ab19b64b5d1bcca02faabe36&amp;dn=A+Clockwork+Orange+%5BEng%2CGer%2CSpa%5D%5Bemandoz+1-gig+rip%5D&amp;tr=udp%3A%2F%2Ftracker.openbittorrent.com%3A80&amp;tr=udp%3A%2F%2Fopen.demonii.com%3A1337&amp;tr=udp%3A%2F%2Ftracker.coppersurfer.tk%3A6969&amp;tr=udp%3A%2F%2Fexodus.desync.com%3A6969","seeders":1,"leechers":0,"uploader":"emandoz","files":4,"time":1249159930,"description":"emandoz presents:\n\nA Clockwork Orange [Eng,Ger,Spa][emandoz 1-gig rip]\n\n\n\nA Clockwork Orange\nAudio: English, German, Spanish\nSubs included\nSource: PAL DVD\n\n--------------------------------------------------------------------\nA Clockwork Orange (1971)\n\nVideo\nID                               : 1\nFormat                           : AVC\nFormat/Info                      : Advanced Video Codec\nFormat profile                   : &lt;a class=&quot;__cf_email__&quot; href=&quot;/cdn-cgi/l/email-protection&quot; data-cfemail=&quot;b3fed2daddf3ff809d83&quot;&gt;[email&amp;#160;protected]&lt;/a&gt;&lt;script cf-hash='f9e31' type=&quot;text/javascript&quot;&gt;\n/* &lt;![CDATA[ */!function(){try{var t=&quot;currentScript&quot;in document?document.currentScript:function(){for(var t=document.getElementsByTagName(&quot;script&quot;),e=t.length;e--;)if(t[e].getAttribute(&quot;cf-hash&quot;))return t[e]}();if(t&amp;&amp;t.previousSibling){var e,r,n,i,c=t.previousSibling,a=c.getAttribute(&quot;data-cfemail&quot;);if(a){for(e=&quot;&quot;,r=parseInt(a.substr(0,2),16),n=2;a.length-n;n+=2)i=parseInt(a.substr(n,2),16)^r,e+=String.fromCharCode(i);e=document.createTextNode(e),c.parentNode.replaceChild(e,c)}}}catch(u){}}();/* ]]&gt; */&lt;/script&gt;\nFormat settings, CABAC           : Yes\nFormat settings, ReFrames        : 1 frame\nMuxing mode                      : Container profile=&lt;a class=&quot;__cf_email__&quot; href=&quot;/cdn-cgi/l/email-protection&quot; data-cfemail=&quot;297c474247465e47691a0719&quot;&gt;[email&amp;#160;protected]&lt;/a&gt;&lt;script cf-hash='f9e31' type=&quot;text/javascript&quot;&gt;\n/* &lt;![CDATA[ */!function(){try{var t=&quot;currentScript&quot;in document?document.currentScript:function(){for(var t=document.getElementsByTagName(&quot;script&quot;),e=t.length;e--;)if(t[e].getAttribute(&quot;cf-hash&quot;))return t[e]}();if(t&amp;&amp;t.previousSibling){var e,r,n,i,c=t.previousSibling,a=c.getAttribute(&quot;data-cfemail&quot;);if(a){for(e=&quot;&quot;,r=parseInt(a.substr(0,2),16),n=2;a.length-n;n+=2)i=parseInt(a.substr(n,2),16)^r,e+=String.fromCharCode(i);e=document.createTextNode(e),c.parentNode.replaceChild(e,c)}}}catch(u){}}();/* ]]&gt; */&lt;/script&gt;\nCodec ID                         : V_MPEG4/ISO/AVC\nDuration                         : 2h 11mn\nNominal bit rate                 : 578 Kbps\nWidth                            : 640 pixels\nHeight                           : 400 pixels\nDisplay aspect ratio             : 1.690\nFrame rate                       : 25.000 fps\nResolution                       : 24 bits\nColorimetry                      : 4:2:0\nScan type                        : Progressive\nBits/(Pixel*Frame)               : 0.090\nWriting library                  : x264 core 65\nEncoding settings                : cabac=1 / ref=1 / deblock=1:0:0 / analyse=0x1:0x111 / me=hex / subme=6 / psy_rd=1.0:0.0 / mixed_ref=0 / me_range=16 / chroma_me=1 / trellis=0 / 8x8dct=0 / cqm=0 / deadzone=21,11 / chroma_qp_offset=-2 / threads=3 / nr=0 / decimate=1 / mbaff=0 / bframes=0 / keyint=250 / keyint_min=25 / scenecut=40(pre) / rc=2pass / bitrate=578 / ratetol=1.0 / qcomp=0.60 / qpmin=10 / qpmax=51 / qpstep=4 / cplxblur=20.0 / qblur=0.5 / ip_ratio=1.40 / aq=1:1.00\n\nAudio #1\nID                               : 2\nFormat                           : AAC\nFormat/Info                      : Advanced Audio Codec\nFormat version                   : Version 4\nFormat profile                   : LC\nFormat settings, SBR             : No\nCodec ID                         : A_AAC\nDuration                         : 2h 11mn\nChannel(s)                       : 6 channels\nChannel positions                : Front: L C R, Rear: L R, LFE\nSampling rate                    : 48.0 KHz\nResolution                       : 16 bits\nLanguage                         : English\nNative Bitrate                   : 256 kbps\n\nAudio #2\nID                               : 3\nFormat                           : Vorbis\nFormat settings, Floor           : 1\nCodec ID                         : A_VORBIS\nDuration                         : 2h 11mn\nBit rate mode                    : Constant\nBit rate                         : 112 Kbps\nChannel(s)                       : 2 channels, Dolby Surround ProLogic II\nSampling rate                    : 48.0 KHz\nStream size                      : 105 MiB (10%)\nWriting library                  : aoTuV Beta 5 (UTC 2006-10-24)\nLanguage                         : German\n\nAudio #3\nID                               : 4\nFormat                           : Vorbis\nFormat settings, Floor           : 1\nCodec ID                         : A_VORBIS\nDuration                         : 2h 11mn\nBit rate mode                    : Constant\nBit rate                         : 112 Kbps\nChannel(s)                       : 2 channels, Dolby Surround ProLogic II\nSampling rate                    : 48.0 KHz\nStream size                      : 105 MiB (10%)\nWriting library                  : aoTuV Beta 5 (UTC 2006-10-24)\nLanguage                         : Spanish\n\nSubs\nGerman, English, Spanish, Dutch, Swedish, Norwegian, Danish, Finnish, Portugese, Hebraic, Polish, Greek, Czech, Turkish, Hungarian, Icelandic, Croatian, French, Italian, German for the hearing impaired, English for the hearing impaired\n--------------------------------------------------------------------\n\n\nScreenshots:\n &lt;a href=&quot;\nhttp://img13.imageshack.us/img13/2328/image001lzh.jpg&quot; rel=&quot;nofollow&quot; target=&quot;_NEW&quot;&gt;\nhttp://img13.imageshack.us/img13/2328/image001lzh.jpg&lt;/a&gt; &lt;a href=&quot;\nhttp://img29.imageshack.us/img29/8264/image002llp.jpg&quot; rel=&quot;nofollow&quot; target=&quot;_NEW&quot;&gt;\nhttp://img29.imageshack.us/img29/8264/image002llp.jpg&lt;/a&gt; &lt;a href=&quot;\nhttp://img29.imageshack.us/img29/9638/image003qkk.jpg&quot; rel=&quot;nofollow&quot; target=&quot;_NEW&quot;&gt;\nhttp://img29.imageshack.us/img29/9638/image003qkk.jpg&lt;/a&gt; &lt;a href=&quot;\nhttp://img199.imageshack.us/img199/9827/image004apj.jpg&quot; rel=&quot;nofollow&quot; target=&quot;_NEW&quot;&gt;\nhttp://img199.imageshack.us/img199/9827/image004apj.jpg&lt;/a&gt; &lt;a href=&quot;\nhttp://img37.imageshack.us/img37/6598/image004wqp.jpg&quot; rel=&quot;nofollow&quot; target=&quot;_NEW&quot;&gt;\nhttp://img37.imageshack.us/img37/6598/image004wqp.jpg&lt;/a&gt; &lt;a href=&quot;\nhttp://img37.imageshack.us/img37/5564/image005dlm.jpg&quot; rel=&quot;nofollow&quot; target=&quot;_NEW&quot;&gt;\nhttp://img37.imageshack.us/img37/5564/image005dlm.jpg&lt;/a&gt;","torrent":{"xt":"urn:btih:7e28b8d5de8e52f4ab19b64b5d1bcca02faabe36","amp;dn":"A+Clockwork+Orange+%5BEng%2CGer%2CSpa%5D%5Bemandoz+1-gig+rip%5D","amp;tr":["udp%3A%2F%2Ftracker.openbittorrent.com%3A80","udp%3A%2F%2Fopen.demonii.com%3A1337","udp%3A%2F%2Ftracker.coppersurfer.tk%3A6969","udp%3A%2F%2Fexodus.desync.com%3A6969"],"infoHash":"7e28b8d5de8e52f4ab19b64b5d1bcca02faabe36","infoHashBuffer":{"type":"Buffer","data":[126,40,184,213,222,142,82,244,171,25,182,75,93,27,204,160,47,170,190,54]},"announce":[],"urlList":[]}}